<svg width="150" height="80" viewBox="0 0 150 80" fill="none" xmlns="http://www.w3.org/2000/svg">
<rect x="0.5" y="0.5" width="149" height="79" stroke="#C4C4C4"/>
<g clip-path="url(#clip0_1_417)">
<path fill-rule="evenodd" clip-rule="evenodd" d="M87.7014 47.3625H86.3734V32.0449H87.7014V47.3625ZM119.255 32.0449V44.8845L107.395 32.0449V32H106.023V47.3625H107.395V34.3875L119.255 47.3625V47.3169V47.3625H120.627V32.0449H119.255ZM103.013 32.0449V32.0898L88.9401 47.3169H90.9752L103.013 33.9371V42.8114H97.0833V44.2082H103.013V47.3169H104.34V32.0449H103.013Z" fill="black"/>
<path fill-rule="evenodd" clip-rule="evenodd" d="M80.7092 40.3783H80.7979C83.0105 40.3783 84.8242 38.3514 84.8242 36.0993C84.8242 33.9371 83.1426 32.1347 81.0621 32.0449V32H80.8413H69.9553V47.3625H71.3274V33.3968H80.974C81.6254 33.4833 82.223 33.8056 82.6549 34.3032C83.0868 34.8008 83.3232 35.4397 83.32 36.1C83.32 37.5417 82.2134 38.9379 80.7532 39.0284H78.8949V40.56H78.9382L82.8771 47.3176H85.0463L80.7092 40.3783ZM61.1924 32L53.8024 32.0449V47.3618H64.9098C67.0337 47.2264 68.6712 45.4241 68.6712 43.2611C68.6712 41.7752 67.9188 40.5137 66.7682 39.7925C67.9182 39.0726 68.6712 37.586 68.6712 36.0993C68.6712 33.9371 67.0337 32.1796 64.9539 32.0449V32H61.1924ZM61.1924 45.965H55.1738V33.3968H64.8651C65.5165 33.4833 66.114 33.8056 66.5458 34.3032C66.9775 34.8009 67.2139 35.4397 67.2104 36.1C67.2104 37.5867 66.0158 38.9828 64.555 39.0284V40.5586C66.0151 40.5586 67.2104 41.7752 67.2104 43.2611C67.2104 44.658 66.1485 45.784 64.8211 45.965H61.1924Z" fill="black"/>
<path fill-rule="evenodd" clip-rule="evenodd" d="M13.5294 32V47.3169H14.9015L26.9388 34.2977V42.8114H21.0969V44.2082H26.9388V47.3169H28.2669V32H13.5294ZM14.9015 45.2444V40.019H19.7695L14.9015 45.2444ZM14.9015 38.6222V33.3962H25.965L21.0969 38.6222H14.9015Z" fill="#00ACEC"/>
<path fill-rule="evenodd" clip-rule="evenodd" d="M128.947 32C124.787 32 121.38 35.4237 121.38 39.6591C121.38 43.8925 124.787 47.3625 128.947 47.3625C133.107 47.3625 136.471 43.8925 136.471 39.6591C136.471 35.4237 133.107 32 128.947 32ZM128.947 45.7398C125.672 45.7398 123.061 43.0373 123.061 39.7489C123.061 36.415 125.672 33.7574 128.947 33.7574C132.178 33.7574 134.833 36.415 134.833 39.7489C134.833 43.0373 132.178 45.7398 128.947 45.7398Z" fill="black"/>
<path fill-rule="evenodd" clip-rule="evenodd" d="M48.093 33.4859V32.089H33.2675V47.3617H34.5955V40.3326H43.3294L36.8961 47.3161H38.9319L50.9252 33.9363V42.8106H45.0393V44.2074H50.9252L51.0133 47.4066H52.3854L52.2973 32.0441H50.9252V32.089L44.6161 38.9365H34.5955V33.4859H48.093Z" fill="black"/>
</g>
<defs>
<clipPath id="clip0_1_417">
<rect width="122.941" height="15.4074" fill="white" transform="translate(13.5294 32)"/>
</clipPath>
</defs>
</svg>
