<svg width="150" height="80" viewBox="0 0 150 80" fill="none" xmlns="http://www.w3.org/2000/svg">
<rect x="0.5" y="0.5" width="149" height="79" stroke="#C4C4C4"/>
<g clip-path="url(#clip0_1_424)">
<path d="M16.795 45.7151L15.3195 46.1069L12.1043 41.2213L10.2984 41.1752L10.3865 45.8995L8.93307 46.0147V34.0772L11.7519 33.985C13.0292 33.939 14.0202 34.2385 14.7029 34.8377C15.3856 35.4599 15.7379 36.2896 15.7379 37.2805C15.7379 37.9488 15.5177 38.5941 15.0993 39.2394C14.6808 39.9077 14.0863 40.4147 13.2935 40.7373V40.7834L16.795 45.7151ZM10.3645 34.9299L10.2764 40.3686L12.4786 40.2764C13.2714 40.046 14.2184 39.0781 14.2184 37.6492C14.2184 36.0591 13.2274 35.0221 11.5757 34.976L10.3645 34.9299ZM23.6439 46.1069C20.4727 46.1069 17.9842 43.641 17.9842 39.9538C17.9842 36.5661 20.803 33.8007 23.9742 33.8007C27.1674 33.8007 29.6559 36.2896 29.6559 39.9768C29.6339 43.3875 26.6829 46.1069 23.6439 46.1069ZM23.8641 45.1159C26.3526 45.1159 28.0923 43.1801 28.0923 40.092C28.0923 37.004 26.0663 34.7916 23.754 34.7916C21.2875 34.7916 19.5257 36.7044 19.5257 39.8385C19.5257 42.8575 21.5958 45.1159 23.8641 45.1159ZM35.8881 45.8995L34.4347 46.0147V40.3455L30.1404 34.1925L31.7039 33.985L35.3156 39.4929L39.0373 33.985L40.2926 34.1925L35.8661 40.4147L35.8881 45.8995ZM50.1585 45.8764L48.639 46.0377L47.5158 42.8805L42.0323 42.9957L40.9092 46.0147L39.6539 45.8764L44.5649 33.985L45.2255 33.8237L50.1585 45.8764ZM44.719 36.0361L42.4507 41.9357L47.1635 42.0278L44.719 36.0361ZM55.2015 45.8995L52.1845 45.9916V34.1003L53.638 33.985L53.5719 39.032L53.616 44.9776L58.4608 44.7933L58.3507 45.9225L55.2015 45.8995ZM88.6972 45.8995L87.2437 46.0147V34.976L82.8393 35.1373L82.9494 33.985H87.8383L92.9695 33.8698L92.8594 35.0912L88.7192 34.9299L88.6311 39.3085L88.6972 45.8995ZM102.725 45.8764L101.206 46.0377L100.083 42.8805L94.5991 42.9957L93.476 46.0147L92.2207 45.8764L97.1317 33.985L97.7923 33.8237L102.725 45.8764ZM97.2858 36.0361L95.0175 41.9357L99.7303 42.0278L97.2858 36.0361ZM107.768 45.8995L104.751 45.9916V34.1003L106.205 33.985L106.139 39.0089L106.183 44.9546L111.028 44.7702L110.918 45.8995H107.768ZM115.014 45.8995L113.098 45.9916V34.0772L115.828 33.985H119.22L119.11 35.1373L114.551 34.953L114.441 39.4698L118.405 39.3546L118.163 40.4838L114.419 40.3686L114.529 44.9546L119.594 44.7933L119.484 45.9225H115.014V45.8995ZM123.184 45.8995L121.885 46.0147L121.995 34.1003L123.052 33.985L130.077 43.2032L129.945 34.1003L131.244 33.985L131.09 45.8995L130.605 45.9916L123.03 36.3587L123.184 45.8995ZM136.97 46.0147C136.309 46.0147 135.648 45.8764 135.01 45.5999C134.371 45.3233 133.887 44.9776 133.534 44.632L134.239 43.8254C135.12 44.5167 136.067 45.0468 137.344 45.0468C138.753 45.0468 139.722 44.3785 139.722 43.0649C139.722 42.3735 139.48 41.8435 139.04 41.5209C138.599 41.1982 137.983 40.8756 137.234 40.5529C135.67 39.9077 133.997 39.2394 133.997 37.0501C133.997 35.2986 135.516 33.8929 137.586 33.8929C138.665 33.8929 139.789 34.2155 140.449 34.7225L140.185 35.7595C139.524 35.4369 138.247 34.953 137.278 34.953C136.199 34.953 135.296 35.483 135.296 36.6353C135.296 37.3727 135.538 37.9027 135.979 38.2254C136.419 38.5711 137.036 38.8937 137.762 39.2163C139.304 39.9077 141.022 40.4608 141.022 42.604C141.044 44.8624 139.084 46.0147 136.97 46.0147Z" fill="#333333"/>
<path d="M64.8698 33.823V45.9679H76.4754V33.823H64.8698ZM70.6616 45.4609C67.7106 45.4609 65.3322 42.972 65.3322 39.8839C65.3322 36.7959 67.7106 34.307 70.6616 34.307C73.6125 34.307 75.9909 36.7959 75.9909 39.8839C75.9909 42.972 73.6125 45.4609 70.6616 45.4609ZM65.9929 40.8749C66.103 41.428 66.6315 42.7646 67.5344 42.442C68.1951 42.1885 68.2391 41.5432 68.3713 40.8057C68.4814 40.1144 68.6576 38.8008 68.8778 38.5243C68.8998 38.5012 68.8778 38.4782 68.8558 38.4782C68.3272 38.5012 67.9749 39.7457 67.7767 40.3218C67.4023 41.451 66.2571 41.5432 66.0589 40.8518C66.0589 40.8518 65.9929 40.8518 65.9929 40.8749ZM75.2422 38.916C75.11 38.6164 75.0219 38.5012 74.8898 38.2247C74.9999 37.902 75.1321 37.4642 75.11 37.2798C75.0219 36.4963 74.0089 37.3259 74.2291 38.3399C74.2952 38.6164 74.3613 38.8239 74.4053 39.0082C74.097 39.6535 73.9649 39.5383 73.9869 39.3078C74.0089 39.1465 74.031 38.8239 74.031 38.8239C74.119 38.2016 73.8107 38.1555 73.6125 38.2938C73.5024 38.3629 73.3483 38.5934 73.2822 38.7317L73.3483 38.4321L72.7977 38.6625L72.6215 39.6074C72.4013 40.1374 72.1591 40.2296 72.0049 40.2066C71.9609 40.1835 71.9168 40.1605 71.8728 40.1374C72.3793 39.6765 72.5555 39.2848 72.5114 39.0082C72.4674 38.7086 72.2472 38.7086 72.093 38.7547C71.6966 38.893 71.3663 39.3078 71.2782 39.8839C71.2562 40.0683 71.2562 40.2527 71.3002 40.3909C70.9479 40.9671 70.9258 40.6444 70.9699 40.414C71.08 39.8839 71.4323 37.6946 71.4323 37.6946L70.8818 37.9251C70.8818 37.9251 70.5515 39.8378 70.4193 40.5753C70.1551 41.2436 70.089 40.9901 70.133 40.7597C70.2211 40.2296 70.3533 39.5383 70.3533 39.5383L69.8247 39.7457C69.8247 39.7457 69.7807 39.907 69.7366 40.1835C69.6706 39.9761 69.5384 39.8378 69.3623 39.8148C69.0319 39.7687 68.6796 40.2296 68.5695 40.7827C68.4594 41.3588 68.6355 41.8658 68.9659 41.8889C69.2081 41.9119 69.4504 41.7045 69.6045 41.3819C69.6926 41.5893 69.9128 41.5662 70.0449 41.4741C70.1771 41.3819 70.3092 41.1514 70.3973 40.9671C70.4413 41.2436 70.6616 41.2436 70.8157 41.1514C71.058 41.0132 71.2782 40.6905 71.3883 40.5522C71.4764 40.7136 71.6305 40.8057 71.8067 40.7827C72.049 40.7597 72.3352 40.437 72.5555 40.0683L72.4674 40.5062L73.0179 40.2757L73.2161 39.2156C73.4804 38.5473 73.5685 38.7778 73.5465 38.9852C73.5465 38.9852 73.5244 39.1695 73.4804 39.4691C73.4143 40.0913 73.6786 40.1144 73.8768 39.9992C74.1631 39.8148 74.3393 39.4691 74.4934 39.1465C74.6035 39.423 74.7357 39.6535 74.8458 39.9992C75.6386 42.3267 72.6436 42.0963 71.4544 42.1424C70.3533 42.1885 70.2431 43.1794 70.133 43.9399C74.2291 43.986 76.079 40.8288 75.2422 38.916ZM69.6485 40.6905C69.6265 40.9671 69.4504 41.2667 69.2962 41.2667C69.142 41.2667 69.0319 41.0362 69.076 40.7136C69.12 40.437 69.2522 40.1835 69.4063 40.1835C69.5605 40.1835 69.6706 40.414 69.6485 40.6905ZM71.8067 39.9531C71.7847 39.8839 71.7847 39.8148 71.7847 39.7226C71.8067 39.4461 71.9388 39.1465 72.115 39.1004C72.1811 39.0774 72.2472 39.1004 72.2472 39.2156C72.2472 39.4691 72.0049 39.7687 71.8067 39.9531ZM74.8017 38.0173C74.7797 37.9942 74.7797 37.9712 74.7797 37.9481C74.4494 37.1185 74.8898 37.0033 74.9339 37.349C74.9339 37.5333 74.8898 37.7868 74.8017 38.0173ZM71.2341 35.6436C71.1681 36.1736 71.124 37.2798 70.133 37.4411C68.5034 37.7177 66.3232 38.4551 65.9709 40.1144C65.9709 40.1374 65.9048 40.1374 65.9048 40.1374C65.8607 37.5333 68.085 35.6436 71.2341 35.6436Z" fill="#FF0000"/>
</g>
<defs>
<clipPath id="clip0_1_424">
<rect width="132.353" height="12.4444" fill="white" transform="translate(8.82352 33.7778)"/>
</clipPath>
</defs>
</svg>
