<svg width="240" height="127" viewBox="0 0 240 127" fill="none" xmlns="http://www.w3.org/2000/svg">
<rect x="0.5" y="0.5" width="239" height="126" stroke="#C4C4C4"/>
<path fill-rule="evenodd" clip-rule="evenodd" d="M66.1062 45.1555C69.0027 46.9471 72.5509 51.7706 73.7819 55.3538C75.2302 59.3505 73.8543 63.2782 70.4509 66.1724C64.8752 70.8581 61.3269 74.0967 58.7201 77.0598C56.6925 79.4026 54.158 82.3657 54.3753 88.4296C49.0167 82.2968 48.003 72.8564 53.796 66.7236C60.0235 60.1085 61.1821 58.7303 63.4993 55.8362C65.6717 53.0799 66.4682 49.1521 66.1062 45.1555Z" fill="#558EC0"/>
<path fill-rule="evenodd" clip-rule="evenodd" d="M41.8835 75.259C26.8344 62.5345 30.9454 44.8617 52.9686 39.8426C55.3177 39.277 56.3454 39.065 57.52 38.5701C58.768 41.0443 58.9148 42.953 55.8316 45.0031C48.1234 50.0222 36.4512 56.8792 41.8835 75.259Z" fill="#558EC0"/>
<path fill-rule="evenodd" clip-rule="evenodd" d="M96.8642 78.3967C95.6321 78.8831 95.016 79.0221 93.1679 79.0221C85.8524 79.0221 80 73.5326 80 66.7924C80 60.0522 85.9294 54.5628 93.1679 54.5628C94.4 54.5628 95.6321 54.7018 96.9412 55.1187V61.164C95.7861 60.5386 94.631 60.2607 93.1679 60.2607C89.1636 60.2607 85.9294 63.1791 85.9294 66.7924C85.9294 70.4057 89.1636 73.3242 93.1679 73.3242C94.862 73.3242 95.7091 73.0462 96.7872 72.4903L96.8642 78.3967Z" fill="#053D5B"/>
<path fill-rule="evenodd" clip-rule="evenodd" d="M179.765 66.7924C179.765 73.5326 174.043 79.0221 167.059 79.0221C160 79.0221 154.353 73.5326 154.353 66.7924C154.353 60.0522 160.074 54.5628 167.059 54.5628C174.043 54.5628 179.765 60.0522 179.765 66.7924ZM166.985 60.2607C163.121 60.2607 160 63.1791 160 66.7924C160 70.4057 163.121 73.3242 166.985 73.3242C170.848 73.3242 173.969 70.4057 173.969 66.7924C173.969 63.1791 170.848 60.2607 166.985 60.2607Z" fill="#053D5B"/>
<path fill-rule="evenodd" clip-rule="evenodd" d="M126.015 78.9516H119.53V64.0082C119.53 59.0035 123.93 54.5628 129.412 54.5628C134.894 54.5628 139.294 59.0035 139.294 64.0082V79.0221H132.809V64.0082C132.809 61.823 131.265 60.4838 129.335 60.4838C127.405 60.4838 125.86 62.0345 125.86 64.0082L126.015 78.9516Z" fill="#053D5B"/>
<path fill-rule="evenodd" clip-rule="evenodd" d="M187.824 78.9516H181.647V64.0082C181.647 59.0035 185.839 54.5628 191.059 54.5628C196.28 54.5628 200.471 59.0035 200.471 64.0082V79.0221H194.294V64.0082C194.294 61.8935 192.824 60.4838 190.986 60.4838C189.147 60.4838 187.677 62.0345 187.677 64.0082L187.824 78.9516Z" fill="#053D5B"/>
<path fill-rule="evenodd" clip-rule="evenodd" d="M105 72.6077V78.9516H98.8235V64.0082C98.8235 59.0035 103.015 54.5628 108.235 54.5628C113.456 54.5628 117.647 59.0035 117.647 64.0082V79.0221H111.471V72.5372H105V72.6077ZM111.544 67.0391V64.0787C111.544 61.964 110.073 60.5543 108.235 60.5543C106.544 60.5543 104.926 62.105 104.926 64.0787V67.1096H111.544V67.0391Z" fill="#053D5B"/>
<path fill-rule="evenodd" clip-rule="evenodd" d="M149.831 63.5702L151.77 66.9864C155.128 72.6802 151.696 80.6515 141.177 78.7298V73.1072C145.504 74.673 147.891 72.4667 146.026 68.9793C146.026 68.9793 144.683 66.6306 143.638 64.8513C141.102 60.581 144.31 53.3214 153.412 54.7448V60.5098C151.099 58.8728 148.04 60.5098 149.831 63.5702Z" fill="#053D5B"/>
<path d="M208 57.8555C208 58.5472 207.668 59.1006 207.17 59.5156C206.671 59.9307 205.924 60.2074 205.177 60.2074C204.346 60.2074 203.682 59.9307 203.183 59.5156C202.685 59.1006 202.353 58.4781 202.353 57.8555C202.353 57.1638 202.685 56.6104 203.183 56.1954C203.682 55.7804 204.429 55.5037 205.177 55.5037C205.924 55.5037 206.671 55.7804 207.17 56.1954C207.668 56.6104 208 57.1638 208 57.8555ZM206.921 59.3773C207.419 58.9623 207.668 58.4781 207.668 57.8555C207.668 57.3021 207.419 56.7488 206.921 56.3337C206.422 55.9187 205.841 55.7112 205.094 55.7112C204.346 55.7112 203.765 55.9187 203.267 56.3337C202.768 56.7488 202.519 57.233 202.519 57.8555C202.519 58.4781 202.768 58.9623 203.267 59.3773C203.765 59.7923 204.346 59.9999 205.094 59.9999C205.841 59.9999 206.422 59.7232 206.921 59.3773Z" fill="#053D5B"/>
<path fill-rule="evenodd" clip-rule="evenodd" d="M204.678 56.8153H205.287C205.509 56.8153 205.675 56.8895 205.675 57.2609C205.675 57.5579 205.564 57.7065 205.287 57.7065H204.678V56.8153ZM204.291 59.2661H204.678V58.0778H205.232C205.564 58.0778 205.675 58.3006 205.675 58.8205C205.675 58.9691 205.675 59.1176 205.73 59.2661H206.118C206.062 59.1176 206.007 58.8205 206.007 58.5234C206.007 58.0778 205.841 57.9293 205.675 57.9293C205.73 57.9293 206.007 57.7808 206.007 57.1866C206.007 56.6667 205.786 56.4439 205.287 56.4439H204.235V59.2661H204.291Z" fill="#053D5B"/>
</svg>
