<svg width="240" height="127" viewBox="0 0 240 127" fill="none" xmlns="http://www.w3.org/2000/svg">
<rect x="0.5" y="0.5" width="239" height="126" stroke="#C4C4C4"/>
<g clip-path="url(#clip0_1_256)">
<path fill-rule="evenodd" clip-rule="evenodd" d="M140.322 75.1879H138.198V50.8713H140.322V75.1879ZM190.809 50.8713V71.2541L171.832 50.8713V50.8H169.637V75.1879H171.832V54.5901L190.809 75.1879V75.1156V75.1879H193.003V50.8713H190.809ZM164.821 50.8713V50.9426L142.304 75.1156H145.561L164.821 53.8751V67.9631H155.333V70.1805H164.821V75.1156H166.944V50.8713H164.821Z" fill="black"/>
<path fill-rule="evenodd" clip-rule="evenodd" d="M129.135 64.1006H129.277C132.817 64.1006 135.719 60.8829 135.719 57.3077C135.719 53.8751 133.028 51.0139 129.699 50.8713V50.8H129.346H111.928V75.1879H114.124V53.0175H129.558C130.601 53.1547 131.557 53.6663 132.248 54.4563C132.939 55.2463 133.317 56.2605 133.312 57.3087C133.312 59.5975 131.541 61.8139 129.205 61.9576H126.232V64.3889H126.301L132.603 75.1166H136.074L129.135 64.1006ZM97.9079 50.8L86.0837 50.8713V75.1869H103.856C107.254 74.9719 109.874 72.1107 109.874 68.6771C109.874 66.3181 108.67 64.3155 106.829 63.1706C108.669 62.0278 109.874 59.6678 109.874 57.3077C109.874 53.8751 107.254 51.0852 103.926 50.8713V50.8H97.9079ZM97.9079 72.9694H88.278V53.0175H103.784C104.826 53.1548 105.782 53.6664 106.473 54.4564C107.164 55.2464 107.542 56.2606 107.537 57.3087C107.537 59.6688 105.625 61.8852 103.288 61.9576V64.3868C105.624 64.3868 107.537 66.3181 107.537 68.6771C107.537 70.8945 105.838 72.6821 103.714 72.9694H97.9079Z" fill="black"/>
<path fill-rule="evenodd" clip-rule="evenodd" d="M21.6471 50.8V75.1155H23.8424L43.1021 54.4475V67.963H33.7551V70.1805H43.1021V75.1155H45.227V50.8H21.6471ZM23.8424 71.8255V63.5302H31.6313L23.8424 71.8255ZM23.8424 61.3127V53.0164H41.5439L33.7551 61.3127H23.8424Z" fill="#00ACEC"/>
<path fill-rule="evenodd" clip-rule="evenodd" d="M206.315 50.8C199.66 50.8 194.207 56.2351 194.207 62.9588C194.207 69.6794 199.66 75.1879 206.315 75.1879C212.971 75.1879 218.353 69.6794 218.353 62.9588C218.353 56.2351 212.971 50.8 206.315 50.8ZM206.315 72.6119C201.075 72.6119 196.898 68.3216 196.898 63.1014C196.898 57.8089 201.075 53.5899 206.315 53.5899C211.484 53.5899 215.733 57.8089 215.733 63.1014C215.733 68.3216 211.484 72.6119 206.315 72.6119Z" fill="black"/>
<path fill-rule="evenodd" clip-rule="evenodd" d="M76.9487 53.16V50.9425H53.2279V75.1878H55.3528V64.0292H69.3271L59.0338 75.1155H62.2911L81.4803 53.875V67.963H72.0628V70.1805H81.4803L81.6212 75.2591H83.8165L83.6757 50.8712H81.4803V50.9425L71.3857 61.8128H55.3528V53.16H76.9487Z" fill="black"/>
</g>
<defs>
<clipPath id="clip0_1_256">
<rect width="196.706" height="24.4593" fill="white" transform="translate(21.6471 50.8)"/>
</clipPath>
</defs>
</svg>
