<svg width="240" height="127" viewBox="0 0 240 127" fill="none" xmlns="http://www.w3.org/2000/svg">
<rect x="0.5" y="0.5" width="239" height="126" stroke="#C4C4C4"/>
<g clip-path="url(#clip0_1_267)">
<path d="M86.1875 77.9875V59.7685H83.8737V67.608H75.9451V59.7685H73.6313V77.9875H75.9451V69.7403H83.9046V77.9875H86.1875ZM99.9469 68.7055C99.9469 65.852 98.7128 64.3781 94.9491 64.3781C93.5299 64.3781 91.864 64.5976 90.6608 64.9739L90.8768 66.8241C91.9257 66.6045 93.5608 66.385 94.7948 66.385C96.9235 66.385 97.6331 66.9808 97.6331 68.6428V70.7124H94.1778C91.5247 70.7124 90.1672 71.7159 90.1672 74.4754C90.1672 76.8273 91.2162 78.3011 93.6533 78.3011C95.2267 78.3011 96.7384 77.8621 97.9107 77.0468L98.065 78.0502H99.9777L99.9469 68.7055ZM97.6639 75.228C96.6458 75.8865 95.4118 76.3255 94.2704 76.3255C92.6661 76.3255 92.4193 75.7611 92.4193 74.4127C92.4193 73.0643 92.9438 72.6253 94.3321 72.6253H97.6639V75.228ZM114.076 77.9875V67.7648C114.076 65.7265 113.336 64.3781 111.238 64.3781C109.726 64.3781 107.629 65.0366 106.179 65.7892V58.9218L103.927 59.2354V78.0189H106.179V67.9843C107.598 67.2631 109.603 66.6045 110.559 66.6045C111.392 66.6045 111.824 66.9495 111.824 67.8275V78.0189H114.076V77.9875ZM128.422 77.9875V67.7648C128.422 65.7265 127.681 64.3781 125.584 64.3781C124.041 64.3781 121.758 65.068 120.308 65.8206L120.092 64.6917H118.241V78.0189H120.493V67.9529C121.912 67.2317 123.918 66.6045 124.874 66.6045C125.707 66.6045 126.139 66.9495 126.139 67.8275V78.0189H128.422V77.9875ZM134.191 73.3465V72.249H141.996V69.4581C141.996 66.6986 140.947 64.4095 137.06 64.4095C133.173 64.4095 131.939 66.6359 131.939 69.3954V73.3779C131.939 76.3882 133.265 78.2697 137.122 78.2697C138.757 78.2697 140.515 77.9875 141.749 77.5171L141.472 75.667C140.022 76.0433 138.633 76.2942 137.338 76.2942C134.777 76.2942 134.191 75.4475 134.191 73.3465ZM134.191 69.2073C134.191 67.3258 134.931 66.3223 137.06 66.3223C139.189 66.3223 139.806 67.3885 139.806 69.2073V70.3048H134.191V69.2073ZM163.653 77.9875V67.7648C163.653 65.7265 162.913 64.3781 160.815 64.3781C159.18 64.3781 156.959 65.0366 155.385 65.8206C155.015 64.9112 154.244 64.3781 152.886 64.3781C151.344 64.3781 149.061 65.068 147.611 65.8206L147.395 64.6917H145.544V78.0189H147.796V67.9529C149.215 67.2317 151.22 66.6045 152.177 66.6045C153.01 66.6045 153.442 66.9495 153.442 67.8275V78.0189H155.694V67.9529C157.113 67.2317 158.995 66.6045 160.075 66.6045C160.908 66.6045 161.339 66.9495 161.339 67.8275V78.0189H163.653V77.9875ZM167.695 64.6917V74.9144C167.695 76.9527 168.435 78.3011 170.533 78.3011C172.075 78.3011 174.358 77.6112 175.808 76.8586L176.024 77.9875H177.875V64.6604H175.623V74.7263C174.204 75.4475 172.199 76.0747 171.242 76.0747C170.409 76.0747 169.978 75.7297 169.978 74.8517V64.6604L167.695 64.6917ZM169.515 62.6534H171.613V60.3643H169.515V62.6534ZM174.173 62.6534H176.271V60.3643H174.173V62.6534ZM192.344 77.9875V67.7648C192.344 65.7265 191.604 64.3781 189.506 64.3781C187.994 64.3781 185.896 65.0366 184.446 65.7892V58.9218L182.194 59.2354V78.0189H184.446V67.9843C185.866 67.2631 187.871 66.6045 188.827 66.6045C189.66 66.6045 190.092 66.9495 190.092 67.8275V78.0189H192.344V77.9875ZM198.792 77.9875V58.8905L196.54 59.2041V77.9875H198.792ZM204.654 73.3465V72.249H212.459V69.4581C212.459 66.6986 211.41 64.4095 207.523 64.4095C203.636 64.4095 202.402 66.6359 202.402 69.3954V73.3779C202.402 76.3882 203.728 78.2697 207.584 78.2697C209.219 78.2697 210.978 77.9875 212.212 77.5171L211.934 75.667C210.484 76.0433 209.096 76.2942 207.8 76.2942C205.24 76.2942 204.654 75.4475 204.654 73.3465ZM204.654 69.2073C204.654 67.3258 205.394 66.3223 207.523 66.3223C209.651 66.3223 210.268 67.3885 210.268 69.2073V70.3048H204.654V69.2073Z" fill="#6F7072"/>
<path d="M63.5742 52.713C63.3582 50.2671 62.3093 48.1034 60.5817 46.6923C59.0392 45.4066 57.0647 44.7794 55.152 45.0303C52.8073 45.2812 50.8946 47.0999 49.6914 48.5737C48.334 50.2044 47.4085 51.9918 46.9149 53.2774C45.7117 52.2113 44.9405 50.957 44.5702 49.4204C44.2617 48.1034 43.9224 45.5007 43.6756 43.6192C43.4905 42.3649 43.3979 41.3614 43.3054 41.0165C43.0586 39.8562 42.2873 37.8807 41.7937 36.8458C42.8735 36.6263 43.7064 36.3441 44.5085 35.5602C45.3107 34.7449 46.6064 33.4905 46.6372 33.4905L47.4085 32.7379L46.3287 32.6439C46.1128 32.6125 40.6214 32.2049 39.6959 32.2362C39.048 32.2676 38.2459 32.6125 37.598 33.2397C37.0736 33.71 36.3949 34.5254 35.9012 35.8424C35.4076 35.9365 30.9343 36.8145 30.9343 36.8145V37.7866L31.3045 37.8807C32.6928 38.1942 34.4513 38.9468 35.5002 39.7308L35.4385 39.7621C34.5438 40.3579 33.3407 41.1733 32.3226 42.114C31.0269 43.3056 30.4099 44.3718 30.5024 45.3125C30.5641 45.971 30.8418 46.4728 31.3045 46.8177C31.6747 47.0686 32.1375 47.194 32.6619 47.194C32.0449 48.2915 31.7056 49.1382 31.4588 49.9535C31.1503 51.0824 31.0269 52.2113 31.1811 53.6224C31.3662 55.7861 32.446 57.9498 33.68 59.8313H27.2939V74.8518C27.2939 76.2002 27.5716 77.4858 28.1578 78.6147C28.6822 79.6809 29.4226 80.5903 30.3481 81.3742C32.0141 82.754 34.2353 83.5693 36.3023 83.5693C38.3693 83.5693 40.5905 82.754 42.2565 81.3742C43.182 80.6216 43.9224 79.6809 44.4468 78.6147C44.9713 77.5799 45.249 76.451 45.3107 75.2594C45.4341 73.2525 46.1128 70.2735 47.1617 67.953C48.334 65.3189 49.9074 63.9392 51.9127 63.751C52.9924 63.657 54.0722 63.8137 54.9977 64.2528C55.769 64.5977 56.5094 65.1308 57.0956 65.7893C58.1753 66.9495 58.6998 68.2666 58.7615 68.5488V68.5175L59.1317 69.7404L59.6562 68.6742C60.4891 66.9182 61.6614 64.1587 62.5253 60.9288C63.4816 57.8557 63.7901 55.0649 63.5742 52.713ZM34.4204 60.7407L34.6364 61.0229C35.3151 61.9323 36.0246 62.7162 36.6108 63.3434L37.9374 64.7858C40.0661 67.0436 41.732 68.831 42.5033 70.1481C43.4905 71.8414 44.2 73.5034 44.4468 74.7577C44.4777 74.8831 44.5085 75.134 44.5085 75.2281C44.3851 77.9249 42.9969 79.6182 41.7937 80.6216C40.282 81.876 38.2767 82.6286 36.4257 82.6286C34.5438 82.6286 32.5694 81.9073 31.0577 80.6216C29.8237 79.5868 28.3429 77.7367 28.3429 74.8518V60.8034L34.4204 60.7407ZM36.0246 40.5147L36.2406 40.3579C36.3949 40.5774 36.4874 40.7656 36.4874 40.9851C36.5491 41.7377 35.8704 42.553 35.0374 43.6192C34.4821 44.3091 33.8651 45.1244 33.2481 46.0651C32.6619 46.2219 32.1683 46.1592 31.829 45.9083C31.613 45.7202 31.4588 45.4693 31.4279 45.1244C31.3662 44.4972 31.8907 43.6819 32.9396 42.7098C33.9577 41.8945 35.1608 41.1105 36.0246 40.5147ZM61.754 60.7093C61.0753 63.2807 60.1806 65.6012 59.3785 67.2631C59.07 66.636 58.6072 65.9147 57.9594 65.2249C56.8488 63.9705 54.8743 62.5594 51.9127 62.8103C50.6478 62.9357 49.5063 63.4688 48.5191 64.3468C47.717 65.0994 47.0074 66.197 46.3904 67.5453C45.6809 69.176 45.1873 71.0261 44.8171 72.7508C44.4468 71.7787 43.9532 70.7439 43.3054 69.6463C42.4724 68.2352 40.7756 66.4165 38.6161 64.1273L37.2895 62.6849C35.8704 61.1483 34.6672 59.5804 33.8034 58.0752C32.847 56.4133 32.2917 54.8454 32.1683 53.497C32.0449 52.2113 32.1375 51.2078 32.4151 50.173C32.6619 49.2323 33.1247 48.2602 33.9577 46.8491C34.5438 45.8142 35.1917 44.9989 35.8087 44.2777C36.7959 43.0547 37.5363 42.0826 37.4438 40.9537C37.3512 40.013 36.58 39.135 35.0683 38.3197C34.4204 37.9747 33.68 37.6612 33.0013 37.4103C34.4513 37.1281 36.3332 36.7518 36.3332 36.7518L36.6108 36.6891L36.7034 36.4382C37.3821 34.2118 38.8938 33.2083 39.7267 33.177C40.3129 33.1456 43.1203 33.3651 45.1564 33.4905C44.7245 33.8982 44.2 34.4313 43.799 34.8389C43.1511 35.4975 42.4107 35.6856 41.3309 35.9365L40.282 36.1873L40.6831 36.7831C40.899 37.0967 42.0097 39.7308 42.349 41.2046C42.4416 41.5182 42.565 42.553 42.6884 43.7133C42.9352 45.7202 43.2745 48.2602 43.6139 49.6399C44.0766 51.6155 45.0639 53.152 46.7606 54.4377L47.3159 54.8454L47.4085 54.5004C47.8713 52.9639 49.1361 50.7061 50.3702 49.2009C51.4499 47.8525 53.2084 46.2219 55.2137 45.971C56.8488 45.7515 58.5764 46.316 59.9338 47.4449C61.4455 48.6992 62.4019 50.612 62.587 52.8071C62.8338 55.0335 62.5253 57.6989 61.754 60.7093ZM39.7884 37.5357C39.7267 36.7831 39.048 36.1873 38.2767 36.2814C37.5363 36.3441 36.9502 37.034 37.0427 37.8179C37.1044 38.5705 37.7831 39.1663 38.5544 39.0723C39.2948 38.9782 39.8501 38.2883 39.7884 37.5357ZM38.832 37.6298C38.8629 37.8493 38.6778 38.0688 38.4618 38.1002C38.2459 38.1315 38.0299 37.9434 37.9991 37.7239C37.9682 37.5044 38.1533 37.2849 38.3693 37.2535C38.6161 37.1908 38.8012 37.3476 38.832 37.6298ZM35.2225 76.6078V76.8273C35.2225 77.1409 35.1917 77.2977 34.6055 77.2977C34.3279 77.2977 33.9577 77.2663 33.6492 77.1723L33.5566 77.8308C33.8343 77.9249 34.2045 77.9876 34.6364 77.9876C35.747 77.9876 35.9938 77.5799 35.9938 76.89V76.5137C35.9938 75.9493 35.7778 75.573 35.0374 75.5416C34.8215 75.5416 34.6981 75.5103 34.4821 75.5103V74.4755H35.9321V73.817H33.68V76.1374C33.9885 76.1374 34.2353 76.1374 34.6672 76.1688C35.1608 76.2002 35.2225 76.2942 35.2225 76.6078ZM30.6258 77.8935H33.0321V77.235H32.1992V73.817H31.5205L30.5024 74.1305L30.6875 74.7891L31.4588 74.5695V77.235H30.6567V77.8935H30.6258ZM36.6108 76.6392V76.89C36.6108 77.6113 36.9502 77.9562 37.9374 77.9562C38.9246 77.9562 39.264 77.674 39.264 76.89V76.6392C39.264 76.2942 39.1406 76.0434 38.6778 75.8239C39.0789 75.6044 39.1714 75.3535 39.1714 75.0399V74.7577C39.1714 74.1305 38.8629 73.7542 37.9682 73.7542C37.0736 73.7542 36.7651 74.1305 36.7651 74.7577V75.0399C36.7651 75.3535 36.8885 75.6044 37.2587 75.8239C36.7342 76.0434 36.6108 76.2942 36.6108 76.6392ZM38.431 75.0399C38.431 75.2594 38.3693 75.3535 37.9374 75.5416C37.5055 75.3535 37.4438 75.2908 37.4438 75.0399V74.7891C37.4438 74.5382 37.5363 74.4128 37.9374 74.4128C38.3384 74.4128 38.431 74.5695 38.431 74.7891V75.0399ZM37.3512 76.7019C37.3512 76.451 37.4129 76.3256 37.9374 76.1061C38.4618 76.3256 38.5235 76.4197 38.5235 76.7019V76.89C38.5235 77.2036 38.3693 77.2977 37.9374 77.2977C37.5055 77.2977 37.3512 77.1723 37.3512 76.89V76.7019ZM41.115 73.817L39.665 76.2629V76.9528H41.4235V77.8621H42.1639V76.9528H42.6575V76.2942H42.1639V73.7856H41.115V73.817ZM40.4363 76.3256L41.4235 74.5382V76.3256H40.4363Z" fill="#E1001A"/>
</g>
<defs>
<clipPath id="clip0_1_267">
<rect width="185.412" height="51.7407" fill="white" transform="translate(27.2939 31.9854)"/>
</clipPath>
</defs>
</svg>
