<svg width="240" height="127" viewBox="0 0 240 127" fill="none" xmlns="http://www.w3.org/2000/svg">
<rect x="0.5" y="0.5" width="239" height="126" stroke="#C4C4C4"/>
<g clip-path="url(#clip0_1_263)">
<path d="M26.872 72.5722L24.5112 73.1942L19.3669 65.4383L16.4776 65.3651L16.6185 72.8649L14.293 73.0478V54.0971L18.8031 53.9508C20.8468 53.8776 22.4323 54.3532 23.5246 55.3044C24.6169 56.2922 25.1807 57.6092 25.1807 59.1824C25.1807 60.2433 24.8284 61.2677 24.1589 62.292C23.4894 63.353 22.5381 64.1578 21.2696 64.67V64.7432L26.872 72.5722ZM16.5833 55.4507L16.4423 64.0847L19.9659 63.9383C21.2343 63.5725 22.7495 62.0359 22.7495 59.7677C22.7495 57.2434 21.1639 55.5971 18.5212 55.5239L16.5833 55.4507ZM37.8302 73.1942C32.7563 73.1942 28.7747 69.2796 28.7747 63.4261C28.7747 58.0482 33.2848 53.6581 38.3587 53.6581C43.4679 53.6581 47.4495 57.6092 47.4495 63.4627C47.4142 68.8772 42.6927 73.1942 37.8302 73.1942ZM38.1826 71.621C42.1642 71.621 44.9478 68.5479 44.9478 63.6456C44.9478 58.7433 41.7061 55.2312 38.0064 55.2312C34.06 55.2312 31.2412 58.2677 31.2412 63.2432C31.2412 68.0358 34.5533 71.621 38.1826 71.621ZM57.4211 72.8649L55.0956 73.0478V64.0481L48.2247 54.28L50.7264 53.9508L56.505 62.6944L62.4598 53.9508L64.4682 54.28L57.3859 64.1578L57.4211 72.8649ZM80.2536 72.8283L77.8224 73.0844L76.0254 68.0723L67.2518 68.2553L65.4548 73.0478L63.4463 72.8283L71.3038 53.9508L72.3609 53.6947L80.2536 72.8283ZM71.5505 57.2068L67.9212 66.5724L75.4616 66.7187L71.5505 57.2068ZM88.3225 72.8649L83.4953 73.0112V54.1337L85.8208 53.9508L85.7151 61.9628L85.7856 71.4015L93.5374 71.1088L93.3612 72.9015L88.3225 72.8649ZM141.916 72.8649L139.59 73.0478V55.5239L132.543 55.78L132.719 53.9508H140.541L148.751 53.7679L148.575 55.7068L141.951 55.4507L141.81 62.4018L141.916 72.8649ZM164.361 72.8283L161.929 73.0844L160.132 68.0723L151.359 68.2553L149.562 73.0478L147.553 72.8283L155.411 53.9508L156.468 53.6947L164.361 72.8283ZM155.657 57.2068L152.028 66.5724L159.568 66.7187L155.657 57.2068ZM172.429 72.8649L167.602 73.0112V54.1337L169.928 53.9508L169.822 61.9262L169.892 71.3649L177.644 71.0723L177.468 72.8649H172.429ZM184.022 72.8649L180.956 73.0112V54.0971L185.326 53.9508H190.752L190.576 55.78L183.282 55.4873L183.106 62.6579L189.448 62.4749L189.061 64.2676L183.071 64.0847L183.247 71.3649L191.351 71.1088L191.175 72.9015H184.022V72.8649ZM197.094 72.8649L195.015 73.0478L195.191 54.1337L196.883 53.9508L208.123 68.5845L207.911 54.1337L209.99 53.9508L209.744 72.8649L208.969 73.0112L196.848 57.719L197.094 72.8649ZM219.152 73.0478C218.095 73.0478 217.037 72.8283 216.016 72.3893C214.994 71.9503 214.219 71.4015 213.655 70.8528L214.782 69.5723C216.192 70.6698 217.707 71.5113 219.751 71.5113C222.006 71.5113 223.556 70.4503 223.556 68.365C223.556 67.2675 223.168 66.4261 222.464 65.9139C221.759 65.4017 220.772 64.8895 219.574 64.3773C217.073 63.353 214.395 62.292 214.395 58.8165C214.395 56.0361 216.826 53.8044 220.138 53.8044C221.865 53.8044 223.662 54.3166 224.719 55.1215L224.296 56.7678C223.239 56.2556 221.195 55.4873 219.645 55.4873C217.918 55.4873 216.474 56.3288 216.474 58.158C216.474 59.3287 216.861 60.1701 217.566 60.6823C218.271 61.2311 219.257 61.7433 220.42 62.2554C222.887 63.353 225.635 64.231 225.635 67.6333C225.67 71.2186 222.534 73.0478 219.152 73.0478Z" fill="#333333"/>
<path d="M103.792 53.6936V72.9736H122.361V53.6936H103.792ZM113.059 72.1687C108.337 72.1687 104.532 68.2176 104.532 63.3153C104.532 58.413 108.337 54.4619 113.059 54.4619C117.78 54.4619 121.586 58.413 121.586 63.3153C121.586 68.2176 117.78 72.1687 113.059 72.1687ZM105.589 64.8884C105.765 65.7665 106.611 67.8884 108.055 67.3762C109.112 66.9738 109.183 65.9494 109.394 64.7787C109.57 63.6812 109.852 61.5959 110.205 61.1568C110.24 61.1203 110.205 61.0837 110.169 61.0837C109.324 61.1203 108.76 63.0958 108.443 64.0104C107.844 65.8031 106.012 65.9494 105.695 64.8519C105.695 64.8519 105.589 64.8519 105.589 64.8884ZM120.388 61.7788C120.176 61.3032 120.035 61.1203 119.824 60.6812C120 60.1691 120.212 59.474 120.176 59.1813C120.035 57.9374 118.415 59.2545 118.767 60.8642C118.873 61.3032 118.978 61.6324 119.049 61.9251C118.555 62.9495 118.344 62.7666 118.379 62.4007C118.415 62.1446 118.45 61.6324 118.45 61.6324C118.591 60.6447 118.097 60.5715 117.78 60.791C117.604 60.9008 117.357 61.2666 117.252 61.4861L117.357 61.0105L116.477 61.3764L116.195 62.8763C115.842 63.7177 115.455 63.8641 115.208 63.8275C115.138 63.7909 115.067 63.7543 114.997 63.7178C115.807 62.9861 116.089 62.3641 116.019 61.9251C115.948 61.4495 115.596 61.4495 115.349 61.5227C114.715 61.7422 114.186 62.4007 114.045 63.3153C114.01 63.608 114.01 63.9007 114.081 64.1202C113.517 65.0348 113.482 64.5226 113.552 64.1568C113.728 63.3153 114.292 59.8398 114.292 59.8398L113.411 60.2057C113.411 60.2057 112.883 63.2422 112.671 64.4129C112.248 65.4738 112.143 65.0714 112.213 64.7055C112.354 63.8641 112.565 62.7666 112.565 62.7666L111.72 63.0958C111.72 63.0958 111.649 63.3519 111.579 63.7909C111.473 63.4617 111.262 63.2422 110.98 63.2056C110.451 63.1324 109.888 63.8641 109.711 64.7421C109.535 65.6567 109.817 66.4616 110.346 66.4982C110.733 66.5347 111.121 66.2055 111.367 65.6933C111.508 66.0226 111.861 65.986 112.072 65.8396C112.284 65.6933 112.495 65.3275 112.636 65.0348C112.706 65.4738 113.059 65.4738 113.305 65.3275C113.693 65.108 114.045 64.5958 114.222 64.3763C114.362 64.6324 114.609 64.7787 114.891 64.7421C115.279 64.7055 115.737 64.1933 116.089 63.608L115.948 64.3031L116.829 63.9373L117.146 62.2544C117.569 61.1934 117.71 61.5593 117.675 61.8885C117.675 61.8885 117.639 62.1812 117.569 62.6568C117.463 63.6446 117.886 63.6812 118.203 63.4982C118.661 63.2056 118.943 62.6568 119.19 62.1446C119.366 62.5836 119.577 62.9495 119.753 63.4982C121.022 67.1933 116.23 66.8274 114.327 66.9006C112.565 66.9738 112.389 68.5469 112.213 69.7542C118.767 69.8273 121.727 64.8153 120.388 61.7788ZM111.438 64.5958C111.403 65.0348 111.121 65.5104 110.874 65.5104C110.628 65.5104 110.451 65.1445 110.522 64.6324C110.592 64.1933 110.804 63.7909 111.05 63.7909C111.297 63.7909 111.473 64.1568 111.438 64.5958ZM114.891 63.4251C114.856 63.3153 114.856 63.2056 114.856 63.0592C114.891 62.6202 115.102 62.1446 115.384 62.0715C115.49 62.0349 115.596 62.0715 115.596 62.2544C115.596 62.6568 115.208 63.1324 114.891 63.4251ZM119.683 60.352C119.648 60.3154 119.648 60.2788 119.648 60.2422C119.119 58.9252 119.824 58.7423 119.894 59.291C119.894 59.5837 119.824 59.9861 119.683 60.352ZM113.975 56.5838C113.869 57.4252 113.799 59.1813 112.213 59.4374C109.606 59.8764 106.117 61.0471 105.554 63.6812C105.554 63.7177 105.448 63.7178 105.448 63.7178C105.377 59.5837 108.936 56.5838 113.975 56.5838Z" fill="#FF0000"/>
</g>
<defs>
<clipPath id="clip0_1_263">
<rect width="211.765" height="19.7556" fill="white" transform="translate(14.1178 53.622)"/>
</clipPath>
</defs>
</svg>
