<svg width="150" height="80" viewBox="0 0 150 80" fill="none" xmlns="http://www.w3.org/2000/svg">
<rect x="0.5" y="0.5" width="149" height="79" stroke="#C4C4C4"/>
<path fill-rule="evenodd" clip-rule="evenodd" d="M41.3163 28.4445C43.1266 29.573 45.3442 32.6115 46.1136 34.8686C47.0188 37.3862 46.1589 39.8604 44.0317 41.6834C40.5469 44.6351 38.3292 46.6752 36.6999 48.5417C35.4327 50.0175 33.8487 51.8839 33.9845 55.7037C30.6354 51.8405 30.0018 45.8939 33.6224 42.0307C37.5146 37.8637 38.2387 36.9955 39.687 35.1725C41.0447 33.4362 41.5426 30.962 41.3163 28.4445Z" fill="#558EC0"/>
<path fill-rule="evenodd" clip-rule="evenodd" d="M26.1772 47.4074C16.7714 39.392 19.3408 28.2594 33.1053 25.0978C34.5735 24.7416 35.2159 24.608 35.95 24.2963C36.7299 25.8548 36.8217 27.0571 34.8947 28.3485C30.0771 31.5101 22.7819 35.8296 26.1772 47.4074Z" fill="#558EC0"/>
<path fill-rule="evenodd" clip-rule="evenodd" d="M60.5401 49.3838C59.7701 49.6902 59.385 49.7778 58.2299 49.7778C53.6578 49.7778 50 46.3199 50 42.0741C50 37.8283 53.7059 34.3704 58.2299 34.3704C59 34.3704 59.7701 34.4579 60.5882 34.7205V38.5286C59.8663 38.1347 59.1444 37.9596 58.2299 37.9596C55.7273 37.9596 53.7059 39.798 53.7059 42.0741C53.7059 44.3502 55.7273 46.1885 58.2299 46.1885C59.2888 46.1885 59.8182 46.0135 60.492 45.6633L60.5401 49.3838Z" fill="#053D5B"/>
<path fill-rule="evenodd" clip-rule="evenodd" d="M112.353 42.0741C112.353 46.3199 108.777 49.7778 104.412 49.7778C100 49.7778 96.4707 46.3199 96.4707 42.0741C96.4707 37.8283 100.047 34.3704 104.412 34.3704C108.777 34.3704 112.353 37.8283 112.353 42.0741ZM104.365 37.9596C101.951 37.9596 100 39.798 100 42.0741C100 44.3502 101.951 46.1885 104.365 46.1885C106.78 46.1885 108.731 44.3502 108.731 42.0741C108.731 39.798 106.78 37.9596 104.365 37.9596Z" fill="#053D5B"/>
<path fill-rule="evenodd" clip-rule="evenodd" d="M78.7592 49.7334H74.7059V40.3202C74.7059 37.1677 77.4564 34.3704 80.8824 34.3704C84.3084 34.3704 87.0589 37.1677 87.0589 40.3202V49.7778H83.0056V40.3202C83.0056 38.9437 82.0405 38.1001 80.8341 38.1001C79.6278 38.1001 78.6627 39.0769 78.6627 40.3202L78.7592 49.7334Z" fill="#053D5B"/>
<path fill-rule="evenodd" clip-rule="evenodd" d="M117.39 49.7334H113.53V40.3202C113.53 37.1677 116.149 34.3704 119.412 34.3704C122.675 34.3704 125.294 37.1677 125.294 40.3202V49.7778H121.434V40.3202C121.434 38.9881 120.515 38.1001 119.366 38.1001C118.217 38.1001 117.298 39.0769 117.298 40.3202L117.39 49.7334Z" fill="#053D5B"/>
<path fill-rule="evenodd" clip-rule="evenodd" d="M65.6251 45.7372V49.7334H61.7648V40.3202C61.7648 37.1677 64.3843 34.3704 67.6471 34.3704C70.91 34.3704 73.5295 37.1677 73.5295 40.3202V49.7778H69.6692V45.6928H65.6251V45.7372ZM69.7151 42.2295V40.3646C69.7151 39.0325 68.796 38.1445 67.6471 38.1445C66.5901 38.1445 65.5791 39.1214 65.5791 40.3646V42.2739H69.7151V42.2295Z" fill="#053D5B"/>
<path fill-rule="evenodd" clip-rule="evenodd" d="M93.6442 40.0443L94.8566 42.1963C96.9549 45.7829 94.81 50.8042 88.2354 49.5937V46.0519C90.9398 47.0382 92.4319 45.6484 91.2662 43.4516C91.2662 43.4516 90.4269 41.9721 89.7741 40.8513C88.1887 38.1613 90.1937 33.5884 95.8824 34.485V38.1165C94.4369 37.0853 92.5252 38.1165 93.6442 40.0443Z" fill="#053D5B"/>
<path d="M130 36.4444C130 36.8801 129.793 37.2287 129.481 37.4901C129.17 37.7516 128.703 37.9259 128.235 37.9259C127.716 37.9259 127.301 37.7516 126.99 37.4901C126.678 37.2287 126.471 36.8365 126.471 36.4444C126.471 36.0086 126.678 35.6601 126.99 35.3986C127.301 35.1372 127.768 34.9629 128.235 34.9629C128.703 34.9629 129.17 35.1372 129.481 35.3986C129.793 35.6601 130 36.0086 130 36.4444ZM129.325 37.403C129.637 37.1415 129.792 36.8365 129.792 36.4444C129.792 36.0958 129.637 35.7472 129.325 35.4858C129.014 35.2243 128.651 35.0936 128.184 35.0936C127.716 35.0936 127.353 35.2243 127.042 35.4858C126.73 35.7472 126.575 36.0522 126.575 36.4444C126.575 36.8365 126.73 37.1415 127.042 37.403C127.353 37.6644 127.716 37.7951 128.184 37.7951C128.651 37.7951 129.014 37.6208 129.325 37.403Z" fill="#053D5B"/>
<path fill-rule="evenodd" clip-rule="evenodd" d="M127.924 35.7895H128.304C128.443 35.7895 128.547 35.8362 128.547 36.0702C128.547 36.2573 128.477 36.3509 128.304 36.3509H127.924V35.7895ZM127.682 37.3333H127.924V36.5848H128.27C128.477 36.5848 128.547 36.7251 128.547 37.0526C128.547 37.1462 128.547 37.2398 128.581 37.3333H128.823C128.789 37.2398 128.754 37.0526 128.754 36.8655C128.754 36.5848 128.65 36.4912 128.547 36.4912C128.581 36.4912 128.754 36.3976 128.754 36.0234C128.754 35.6959 128.616 35.5555 128.304 35.5555H127.647V37.3333H127.682Z" fill="#053D5B"/>
</svg>
